<svg xmlns="http://www.w3.org/2000/svg" viewBox="0 0 512 512">
  <rect width="512" height="512" rx="96" fill="#070a12"/>
  <g transform="translate(15 72)">
    <defs>
      <linearGradient id="g0" gradientUnits="userSpaceOnUse" x1="254.18" y1="370.09" x2="316.96" y2="20.93"><stop offset="0" stop-color="#1B366C"/><stop offset="1" stop-color="#47CFC1"/></linearGradient>
      <linearGradient id="g1" gradientUnits="userSpaceOnUse" x1="117.76" y1="159.63" x2="238.50" y2="95.20"><stop offset="0" stop-color="#1A3D70"/><stop offset="1" stop-color="#358A9C"/></linearGradient>
      <linearGradient id="g2" gradientUnits="userSpaceOnUse" x1="180.33" y1="136.87" x2="237.16" y2="-7.14"><stop offset="0" stop-color="#3993A3"/><stop offset="1" stop-color="#4AD8C2"/></linearGradient>
      <linearGradient id="g3" gradientUnits="userSpaceOnUse" x1="215.11" y1="79.34" x2="292.97" y2="76.45"><stop offset="0" stop-color="#32859B"/><stop offset="1" stop-color="#42B6B2"/></linearGradient>
      <linearGradient id="g4" gradientUnits="userSpaceOnUse" x1="82.77" y1="241.36" x2="149.15" y2="113.89"><stop offset="0" stop-color="#1D4A75"/><stop offset="1" stop-color="#3993A2"/></linearGradient>
      <linearGradient id="g5" gradientUnits="userSpaceOnUse" x1="17.28" y1="46.31" x2="177.23" y2="19.03"><stop offset="0" stop-color="#26658A"/><stop offset="1" stop-color="#48C5BA"/></linearGradient>
      <linearGradient id="g7" gradientUnits="userSpaceOnUse" x1="135.65" y1="370.24" x2="181.98" y2="323.26"><stop offset="0" stop-color="#182B61"/><stop offset="1" stop-color="#3EA2AB"/></linearGradient>
      <linearGradient id="g8" gradientUnits="userSpaceOnUse" x1="167.90" y1="318.41" x2="189.04" y2="301.67"><stop offset="0" stop-color="#399DA6"/><stop offset="1" stop-color="#52C5BC"/></linearGradient>
    </defs>
    <path fill="url(#g0)" d="M335.036 57.3751C340.783 55.1664 348.27 53.0746 354.27 50.9739L405.201 32.8797L444.278 19.2084C451.812 16.5568 463.841 11.8644 471.16 10.5206C471.454 15.2861 469.92 26.8863 469.35 32.2373C468.299 42.9129 467.186 53.5824 466.013 64.2454C465.481 68.4753 464.802 78.3053 464.021 81.8668C463.933 86.0913 463.205 90.8088 462.799 95.054C460.852 115.42 457.824 136.026 456.606 156.438C453.29 154.407 445.954 148.031 442.65 145.297L421.56 128.13C415.075 135.528 409.211 142.961 403.073 150.593L379.818 179.331L295.536 283.648C282.517 299.886 269.613 316.242 256.222 332.18C253.251 335.716 250.866 339.404 247.695 342.794C238.238 333.47 229.046 323.522 219.651 313.996C211.043 305.377 202.551 296.643 194.179 287.794C191.034 284.503 187.492 281.136 184.486 277.797C182.836 276.365 180.426 273.824 178.949 272.176C177.578 273.824 167.501 286.369 166.43 287.056C165.128 288.883 163.779 290.534 162.372 292.278C159.71 295.857 156.817 299.315 153.927 302.715C152.997 303.81 150.772 306.796 149.921 307.576C146.212 312.684 141.535 317.431 137.766 322.533C137.343 323.107 136.636 324.038 136.165 324.552C133.183 328.278 130.605 331.474 127.384 334.997C126.953 335.63 126.728 335.946 126.226 336.518C125.428 337.543 124.79 338.379 123.892 339.315C122.464 341.418 119.82 344.34 118.107 346.531C116.699 348.214 108.886 358.197 107.744 358.393C107.179 357.44 107.318 340.127 107.258 337.454C107.418 331.609 107.278 325.649 107.318 319.777C107.54 316.754 107.233 311.5 107.265 308.199C107.358 298.507 107.17 288.748 107.309 279.056C107.321 278.181 107.5 275.802 107.869 275.077C109.251 272.367 113.735 266.604 115.78 264.712C117.137 262.621 123.432 255.217 125.429 252.78L146.488 227.218L172.418 195.861C175.727 191.911 179.852 186.388 183.377 182.76C185.572 184.432 187.606 187.011 189.543 189.047C191.656 191.276 193.815 193.464 195.983 195.641C207.859 207.562 219.114 220.031 230.982 231.96C234.493 235.49 237.776 239.395 241.3 242.997L305.462 163.217L320.061 145.043C321.239 143.587 325.125 138.607 326.31 137.656C329.56 133.083 333.821 127.91 337.371 123.465L361.438 93.6903C363.684 90.8685 366.159 88.0581 368.276 85.1607C367.613 84.3903 366.849 83.6672 366.076 83.0098C357.804 75.9807 349.08 69.52 340.657 62.6778C338.596 61.0032 336.678 59.4841 335.036 57.3751Z"/>
    <path fill="url(#g1)" d="M193.305 14.3696C195.95 13.7909 202.854 13.881 205.906 13.8564L231.303 13.8283L272.308 13.828C277.687 13.8539 287.704 13.6292 292.819 14.1434C293.162 17.5389 292.959 24.9847 292.957 28.5882L292.885 56.2792L292.912 83.3592C292.928 87.6454 293.176 94.989 292.901 99.0492C286.196 99.4174 277.7 99.1989 270.883 99.1932L229.592 99.0534L201.792 99.0659C198.179 99.0703 191.145 99.2803 187.81 98.9829C186.116 99.0195 182.08 98.9779 180.725 99.3234C180.323 99.86 180.272 100.784 180.272 101.461C180.275 123.492 180.652 145.632 180.301 167.619C180.285 168.645 174.926 174.642 173.889 175.916C168.359 182.8 162.751 189.621 157.067 196.378C154.062 200.016 147.515 208.6 144.571 211.6L122.163 239.012C118.471 243.595 114.854 248.26 110.966 252.673C109.787 254.01 108.852 255.479 107.442 256.543C107.648 251.856 107.445 246.545 107.444 241.798L107.487 215.483L107.556 141.067C107.555 135.201 106.905 109.161 108.09 105.14C108.978 102.124 114.434 97.8769 116.64 95.2997C120.801 90.5194 125.598 85.9308 129.936 81.3074L167.338 41.8901C172.938 35.9834 178.504 30.0435 184.034 24.0704C186.424 21.4961 190.822 16.4926 193.305 14.3696Z"/>
    <path fill="url(#g2)" d="M193.305 14.3696C195.95 13.7909 202.854 13.881 205.906 13.8564L231.303 13.8283L272.308 13.828C277.687 13.8539 287.704 13.6292 292.819 14.1434C293.162 17.5389 292.959 24.9847 292.957 28.5882L292.885 56.2792L292.912 83.3592C292.928 87.6454 293.176 94.989 292.901 99.0492C286.196 99.4174 277.7 99.1989 270.883 99.1932L229.592 99.0534L201.792 99.0659C198.179 99.0703 191.145 99.2803 187.81 98.9829C188.25 98.7493 215.956 98.3568 219.134 98.4485C219.551 97.595 220.222 96.1461 219.512 95.412C217.618 93.7 217.655 92.6241 216.938 90.4993C214.863 84.3478 215.619 78.9001 215.931 72.5921C216.027 70.6631 217.002 68.4568 216.637 66.2354C216.485 65.3075 216.629 63.178 217.419 62.5082C218.341 61.6606 217.292 60.6161 217.42 59.5715C217.508 58.9647 218.034 57.9256 218.298 57.3648C214.335 56.68 207.057 58.2419 203.346 57.0412C172.283 57.441 149.755 78.3267 144.896 108.725C144.423 111.685 144.625 116.706 144.029 119.1C143.771 119.676 143.539 120.841 143.385 121.498L143.125 121.651C142.07 121.319 141.425 121.379 140.338 121.387C138.992 116.961 134.162 115.603 131.124 112.255C130.186 111.222 129.037 108.334 127.915 107.613C124.476 105.404 120.226 102.812 116.928 100.423C116.43 100.062 116.346 96.3807 116.64 95.2997C120.801 90.5194 125.598 85.9308 129.936 81.3074L167.338 41.8901C172.938 35.9834 178.504 30.0435 184.034 24.0704C186.424 21.4961 190.822 16.4926 193.305 14.3696Z"/>
    <path fill="url(#g3)" d="M203.346 57.0412C232.458 56.0954 261.748 57.4553 290.879 56.9339C291.683 56.9195 292.251 56.8091 292.885 56.2792L292.912 83.3592C292.928 87.6454 293.176 94.989 292.901 99.0492C286.196 99.4174 277.7 99.1989 270.883 99.1932L229.592 99.0534L201.792 99.0659C198.179 99.0703 191.145 99.2803 187.81 98.9829C188.25 98.7493 215.956 98.3568 219.134 98.4485C219.551 97.595 220.222 96.1461 219.512 95.412C217.618 93.7 217.655 92.6241 216.938 90.4993C214.863 84.3478 215.619 78.9001 215.931 72.5921C216.027 70.6631 217.002 68.4568 216.637 66.2354C216.485 65.3075 216.629 63.178 217.419 62.5082C218.341 61.6606 217.292 60.6161 217.42 59.5715C217.508 58.9647 218.034 57.9256 218.298 57.3648C214.335 56.68 207.057 58.2419 203.346 57.0412Z"/>
    <path fill="url(#g4)" d="M116.64 95.2997C116.346 96.3807 116.43 100.062 116.928 100.423C120.226 102.812 124.476 105.404 127.915 107.613C129.037 108.334 130.186 111.222 131.124 112.255C134.162 115.603 138.992 116.961 140.338 121.387C141.425 121.379 142.07 121.319 143.125 121.651L143.385 121.498C143.539 120.841 143.771 119.676 144.029 119.1L143.987 176.007C143.943 183.332 143.947 190.657 143.998 197.981C144.032 201.673 144.042 208.028 144.571 211.6L122.163 239.012C118.471 243.595 114.854 248.26 110.966 252.673C109.787 254.01 108.852 255.479 107.442 256.543C107.648 251.856 107.445 246.545 107.444 241.798L107.487 215.483L107.556 141.067C107.555 135.201 106.905 109.161 108.09 105.14C108.978 102.124 114.434 97.8769 116.64 95.2997Z"/>
    <path fill="url(#g5)" d="M28.1099 14.0635L137.471 14.0836L162.539 14.0235C166.295 14.0012 174.131 13.6872 177.493 14.3255C173.995 18.7226 168.611 23.7016 164.547 27.8385C160.204 32.2604 156.337 36.6786 152.073 41.1403C147.132 46.3096 142.125 50.8379 137.608 56.4322L104.949 90.4524C102.516 92.9598 100.249 96.1071 97.6657 98.4159C97.1492 98.8774 93.7177 99.0339 92.8671 99.0391C84.6688 99.0897 76.4515 99.0952 68.2508 99.1053L29.5152 99.1087C26.9628 99.0944 14.9541 99.3799 13.316 98.8885C13.0404 98.4943 13.0584 98.524 13.0581 98.0408L13.0272 14.18C16.4395 13.806 24.4246 14.0435 28.1099 14.0635Z"/>
    <path fill="url(#g7)" d="M164.837 307.195C169.397 301.384 174.985 293.703 180.485 288.788C180.641 296.256 180.676 303.726 180.588 311.195C180.561 315.273 180.646 320.067 180.455 324.1C180.683 332.411 180.317 341.076 180.487 349.416C180.555 352.745 180.194 356.272 180.459 359.577C177.694 359.126 173.691 359.231 170.792 359.221L156.247 359.195L136.843 359.203C132.079 359.209 127.282 359.08 122.552 359.591C133.613 345.632 145.093 332 156.128 318.014C158.794 314.634 161.904 310.296 164.837 307.195Z"/>
    <path fill="url(#g8)" d="M164.837 307.195C169.397 301.384 174.985 293.703 180.485 288.788C180.641 296.256 180.676 303.726 180.588 311.195C180.561 315.273 180.646 320.067 180.455 324.1C179.841 325.852 180.566 327.207 179.858 328.38C175.736 325.832 166.681 318.143 164.709 313.497C163.607 310.899 164.753 309.281 165.724 307.184C165.191 307.426 165.476 307.388 164.837 307.195Z"/>
  </g>
</svg>
