<?xml version="1.0" encoding="utf-8" ?><svg xmlns="http://www.w3.org/2000/svg" xmlns:xlink="http://www.w3.org/1999/xlink" width="482" height="368" viewBox="0 0 482 368"><defs><linearGradient id="gradient_0" gradientUnits="userSpaceOnUse" x1="254.18257" y1="370.09424" x2="316.95908" y2="20.934202"><stop offset="0" stop-color="#1B366C"/><stop offset="1" stop-color="#47CFC1"/></linearGradient></defs><path fill="url(#gradient_0)" d="M335.036 57.3751C340.783 55.1664 348.27 53.0746 354.27 50.9739L405.201 32.8797L444.278 19.2084C451.812 16.5568 463.841 11.8644 471.16 10.5206C471.454 15.2861 469.92 26.8863 469.35 32.2373C468.299 42.9129 467.186 53.5824 466.013 64.2454C465.481 68.4753 464.802 78.3053 464.021 81.8668C463.933 86.0913 463.205 90.8088 462.799 95.054C460.852 115.42 457.824 136.026 456.606 156.438C453.29 154.407 445.954 148.031 442.65 145.297L421.56 128.13C415.075 135.528 409.211 142.961 403.073 150.593L379.818 179.331L295.536 283.648C282.517 299.886 269.613 316.242 256.222 332.18C253.251 335.716 250.866 339.404 247.695 342.794C238.238 333.47 229.046 323.522 219.651 313.996C211.043 305.377 202.551 296.643 194.179 287.794C191.034 284.503 187.492 281.136 184.486 277.797C182.836 276.365 180.426 273.824 178.949 272.176C177.578 273.824 167.501 286.369 166.43 287.056C165.128 288.883 163.779 290.534 162.372 292.278C159.71 295.857 156.817 299.315 153.927 302.715C152.997 303.81 150.772 306.796 149.921 307.576C146.212 312.684 141.535 317.431 137.766 322.533C137.343 323.107 136.636 324.038 136.165 324.552C133.183 328.278 130.605 331.474 127.384 334.997C126.953 335.63 126.728 335.946 126.226 336.518C125.428 337.543 124.79 338.379 123.892 339.315C122.464 341.418 119.82 344.34 118.107 346.531C116.699 348.214 108.886 358.197 107.744 358.393C107.179 357.44 107.318 340.127 107.258 337.454C107.418 331.609 107.278 325.649 107.318 319.777C107.54 316.754 107.233 311.5 107.265 308.199C107.358 298.507 107.17 288.748 107.309 279.056C107.321 278.181 107.5 275.802 107.869 275.077C109.251 272.367 113.735 266.604 115.78 264.712C117.137 262.621 123.432 255.217 125.429 252.78L146.488 227.218L172.418 195.861C175.727 191.911 179.852 186.388 183.377 182.76C185.572 184.432 187.606 187.011 189.543 189.047C191.656 191.276 193.815 193.464 195.983 195.641C207.859 207.562 219.114 220.031 230.982 231.96C234.493 235.49 237.776 239.395 241.3 242.997L305.462 163.217L320.061 145.043C321.239 143.587 325.125 138.607 326.31 137.656C329.56 133.083 333.821 127.91 337.371 123.465L361.438 93.6903C363.684 90.8685 366.159 88.0581 368.276 85.1607C367.613 84.3903 366.849 83.6672 366.076 83.0098C357.804 75.9807 349.08 69.52 340.657 62.6778C338.596 61.0032 336.678 59.4841 335.036 57.3751Z"/><path fill="#46C8BB" d="M335.036 57.3751C340.783 55.1664 348.27 53.0746 354.27 50.9739L405.201 32.8797L444.278 19.2084C451.812 16.5568 463.841 11.8644 471.16 10.5206C471.454 15.2861 469.92 26.8863 469.35 32.2373C468.299 42.9129 467.186 53.5824 466.013 64.2454L465.77 64.0674C465.464 64.1613 465.234 64.2366 464.936 64.3526C464.842 63.9745 464.701 63.6619 464.792 63.3293L464.238 63.6204C464.175 64.002 464.101 64.3718 463.991 64.7428L463.741 64.6397C463.606 64.1573 463.405 63.6028 463.417 63.1151L463.185 63.2634C462.059 62.1725 463.02 61.5982 462.283 60.3695C461.706 59.4078 462.293 57.5388 461.849 56.8531C460.275 56.5746 455.259 55.7698 454.431 54.8423C455.122 53.6401 455.24 54.2451 455.214 53.084L454.739 53.0532C453.834 53.9248 453.727 54.3533 452.688 54.497L451.523 53.9056C451.02 52.2375 452.101 51.5715 450.661 50.684C448.928 49.6161 441.68 50.2187 444.469 46.6449C444.908 46.0823 445.169 44.9913 445.544 44.2645L445.298 44.096C442.194 47.4759 439.075 52.2757 435.991 55.9539C420.868 74.2398 406.023 92.7538 391.461 111.49L317.999 203.436C305.424 219.412 292.702 235.272 279.836 251.014C274.482 257.632 268.637 265.294 263.143 271.7C263.105 271.274 277.16 253.323 278.143 252.552C278.171 252.228 278.216 252.008 278.354 251.712C277.592 251.518 276.828 251.336 276.061 251.166C275.126 252.522 266.007 263.434 265.605 263.58C265.724 262.951 276.846 249.543 278.205 247.826L330.444 181.582C333.104 178.237 356.925 149.428 356.721 148.278C355.613 146.971 354.407 145.451 353.129 144.337C348.203 143.941 343.175 139.149 338.582 137.493C336.659 136.8 334.504 135.208 332.862 133.973C333.123 129.641 336.906 126.76 339.09 123.072L338.831 122.688L339.229 122.815L339.356 122.442L339.238 122.404C336.501 124.668 328.071 137.338 326.31 137.656C329.56 133.083 333.821 127.91 337.371 123.465L361.438 93.6903C363.684 90.8685 366.159 88.0581 368.276 85.1607C367.613 84.3903 366.849 83.6672 366.076 83.0098C357.804 75.9807 349.08 69.52 340.657 62.6778C338.596 61.0032 336.678 59.4841 335.036 57.3751Z"/><path fill="#22527B" d="M107.258 337.454C107.884 337.859 108.031 337.926 108.776 337.968C110.023 337.192 110.174 336.39 111.113 336.308C111.869 337.171 112.345 337.992 112.95 338.961C113.295 338.624 113.198 338.534 113.293 337.937C113.934 339.987 113.312 343.869 114.958 345.054C115.993 345.801 117.383 344.054 118.107 346.531C116.699 348.214 108.886 358.197 107.744 358.393C107.179 357.44 107.318 340.127 107.258 337.454Z"/><path fill="#22527B" d="M107.318 319.777C107.54 316.754 107.233 311.5 107.265 308.199C107.358 298.507 107.17 288.748 107.309 279.056C107.321 278.181 107.5 275.802 107.869 275.077C109.251 272.367 113.735 266.604 115.78 264.712C115.79 266.712 107.947 273.68 107.944 276.208C107.931 286.103 107.878 296.08 107.723 305.965C108.646 306.722 109.181 306.719 110.153 307.295C112.389 308.583 112.904 310.817 113.201 313.149C113.538 315.789 113.291 318.154 111.693 320.352C110.888 321.46 110.057 321.713 108.863 321.148C108.327 320.4 108.167 320.143 107.318 319.777Z"/><path fill="#22527B" d="M127.384 334.997L127.084 334.637C127.528 331.689 132.125 326.405 134.483 324.467C134.968 324.068 135.683 324.392 136.165 324.552C133.183 328.278 130.605 331.474 127.384 334.997Z"/><path fill="#22527B" d="M149.921 307.576L149.711 307.338C150.687 303.389 155.751 298.586 158.625 295.805C159.785 294.683 160.854 292.676 162.372 292.278C159.71 295.857 156.817 299.315 153.927 302.715C152.997 303.81 150.772 306.796 149.921 307.576Z"/><path fill="#22527B" d="M166.43 287.056L166.34 286.969C166.193 286.341 167.292 285.591 167.872 284.629C169.483 281.956 171.855 281.283 172.255 277.599C172.327 276.938 173.308 276.448 173.897 276.337C176.179 275.908 176.573 273.406 178.584 271.962C179.93 272.037 184.535 276.711 184.486 277.797C182.836 276.365 180.426 273.824 178.949 272.176C177.578 273.824 167.501 286.369 166.43 287.056Z"/><path fill="#46C8BB" d="M465.77 64.0674L466.013 64.2454C465.481 68.4753 464.802 78.3053 464.021 81.8668C463.584 78.378 464.394 75.5863 464.623 72.1267C464.737 70.4022 462.582 68.6083 463.715 67.3874L464.106 67.9981L464.21 67.3228L463.728 66.7431L463.985 66.315L464.687 66.348C465.009 65.2523 465.056 64.9967 465.77 64.0674Z"/><path fill="#22527B" d="M123.892 339.315L123.732 338.642C124.167 337.27 124.236 336.982 125.416 336.2L126.226 336.518C125.428 337.543 124.79 338.379 123.892 339.315Z"/><path fill="#296687" d="M220.92 267.915C224.031 269.458 232.607 279.649 236.612 282.064C241.187 284.823 239.964 285.848 246.451 285.432C251.31 285.12 250.682 285.389 254.585 282.107L254.615 282.242C253.772 283.144 253.002 283.95 252.247 284.929L252.109 285.11C251.497 285.426 247.59 290.917 246.863 291.911C244.593 289.946 242.238 287.009 240.752 285.815C234.272 280.608 226.241 274.283 220.92 267.915Z"/><defs><linearGradient id="gradient_1" gradientUnits="userSpaceOnUse" x1="117.75751" y1="159.63216" x2="238.50191" y2="95.203888"><stop offset="0" stop-color="#1A3D70"/><stop offset="1" stop-color="#358A9C"/></linearGradient></defs><path fill="url(#gradient_1)" d="M193.305 14.3696C195.95 13.7909 202.854 13.881 205.906 13.8564L231.303 13.8283L272.308 13.828C277.687 13.8539 287.704 13.6292 292.819 14.1434C293.162 17.5389 292.959 24.9847 292.957 28.5882L292.885 56.2792L292.912 83.3592C292.928 87.6454 293.176 94.989 292.901 99.0492C286.196 99.4174 277.7 99.1989 270.883 99.1932L229.592 99.0534L201.792 99.0659C198.179 99.0703 191.145 99.2803 187.81 98.9829C186.116 99.0195 182.08 98.9779 180.725 99.3234C180.323 99.86 180.272 100.784 180.272 101.461C180.275 123.492 180.652 145.632 180.301 167.619C180.285 168.645 174.926 174.642 173.889 175.916C168.359 182.8 162.751 189.621 157.067 196.378C154.062 200.016 147.515 208.6 144.571 211.6L122.163 239.012C118.471 243.595 114.854 248.26 110.966 252.673C109.787 254.01 108.852 255.479 107.442 256.543C107.648 251.856 107.445 246.545 107.444 241.798L107.487 215.483L107.556 141.067C107.555 135.201 106.905 109.161 108.09 105.14C108.978 102.124 114.434 97.8769 116.64 95.2997C120.801 90.5194 125.598 85.9308 129.936 81.3074L167.338 41.8901C172.938 35.9834 178.504 30.0435 184.034 24.0704C186.424 21.4961 190.822 16.4926 193.305 14.3696Z"/><defs><linearGradient id="gradient_2" gradientUnits="userSpaceOnUse" x1="180.32883" y1="136.86853" x2="237.15788" y2="-7.1416974"><stop offset="0" stop-color="#3993A3"/><stop offset="1" stop-color="#4AD8C2"/></linearGradient></defs><path fill="url(#gradient_2)" d="M193.305 14.3696C195.95 13.7909 202.854 13.881 205.906 13.8564L231.303 13.8283L272.308 13.828C277.687 13.8539 287.704 13.6292 292.819 14.1434C293.162 17.5389 292.959 24.9847 292.957 28.5882L292.885 56.2792L292.912 83.3592C292.928 87.6454 293.176 94.989 292.901 99.0492C286.196 99.4174 277.7 99.1989 270.883 99.1932L229.592 99.0534L201.792 99.0659C198.179 99.0703 191.145 99.2803 187.81 98.9829C188.25 98.7493 215.956 98.3568 219.134 98.4485C219.551 97.595 220.222 96.1461 219.512 95.412C217.618 93.7 217.655 92.6241 216.938 90.4993C214.863 84.3478 215.619 78.9001 215.931 72.5921C216.027 70.6631 217.002 68.4568 216.637 66.2354C216.485 65.3075 216.629 63.178 217.419 62.5082C218.341 61.6606 217.292 60.6161 217.42 59.5715C217.508 58.9647 218.034 57.9256 218.298 57.3648C214.335 56.68 207.057 58.2419 203.346 57.0412C172.283 57.441 149.755 78.3267 144.896 108.725C144.423 111.685 144.625 116.706 144.029 119.1C143.771 119.676 143.539 120.841 143.385 121.498L143.125 121.651C142.07 121.319 141.425 121.379 140.338 121.387C138.992 116.961 134.162 115.603 131.124 112.255C130.186 111.222 129.037 108.334 127.915 107.613C124.476 105.404 120.226 102.812 116.928 100.423C116.43 100.062 116.346 96.3807 116.64 95.2997C120.801 90.5194 125.598 85.9308 129.936 81.3074L167.338 41.8901C172.938 35.9834 178.504 30.0435 184.034 24.0704C186.424 21.4961 190.822 16.4926 193.305 14.3696Z"/><defs><linearGradient id="gradient_3" gradientUnits="userSpaceOnUse" x1="215.11415" y1="79.342613" x2="292.97247" y2="76.4506"><stop offset="0" stop-color="#32859B"/><stop offset="1" stop-color="#42B6B2"/></linearGradient></defs><path fill="url(#gradient_3)" d="M203.346 57.0412C232.458 56.0954 261.748 57.4553 290.879 56.9339C291.683 56.9195 292.251 56.8091 292.885 56.2792L292.912 83.3592C292.928 87.6454 293.176 94.989 292.901 99.0492C286.196 99.4174 277.7 99.1989 270.883 99.1932L229.592 99.0534L201.792 99.0659C198.179 99.0703 191.145 99.2803 187.81 98.9829C188.25 98.7493 215.956 98.3568 219.134 98.4485C219.551 97.595 220.222 96.1461 219.512 95.412C217.618 93.7 217.655 92.6241 216.938 90.4993C214.863 84.3478 215.619 78.9001 215.931 72.5921C216.027 70.6631 217.002 68.4568 216.637 66.2354C216.485 65.3075 216.629 63.178 217.419 62.5082C218.341 61.6606 217.292 60.6161 217.42 59.5715C217.508 58.9647 218.034 57.9256 218.298 57.3648C214.335 56.68 207.057 58.2419 203.346 57.0412Z"/><defs><linearGradient id="gradient_4" gradientUnits="userSpaceOnUse" x1="82.767784" y1="241.35959" x2="149.15361" y2="113.88551"><stop offset="0" stop-color="#1D4A75"/><stop offset="1" stop-color="#3993A2"/></linearGradient></defs><path fill="url(#gradient_4)" d="M116.64 95.2997C116.346 96.3807 116.43 100.062 116.928 100.423C120.226 102.812 124.476 105.404 127.915 107.613C129.037 108.334 130.186 111.222 131.124 112.255C134.162 115.603 138.992 116.961 140.338 121.387C141.425 121.379 142.07 121.319 143.125 121.651L143.385 121.498C143.539 120.841 143.771 119.676 144.029 119.1L143.987 176.007C143.943 183.332 143.947 190.657 143.998 197.981C144.032 201.673 144.042 208.028 144.571 211.6L122.163 239.012C118.471 243.595 114.854 248.26 110.966 252.673C109.787 254.01 108.852 255.479 107.442 256.543C107.648 251.856 107.445 246.545 107.444 241.798L107.487 215.483L107.556 141.067C107.555 135.201 106.905 109.161 108.09 105.14C108.978 102.124 114.434 97.8769 116.64 95.2997Z"/><defs><linearGradient id="gradient_5" gradientUnits="userSpaceOnUse" x1="17.279057" y1="46.307446" x2="177.22928" y2="19.025734"><stop offset="0" stop-color="#26658A"/><stop offset="1" stop-color="#48C5BA"/></linearGradient></defs><path fill="url(#gradient_5)" d="M28.1099 14.0635L137.471 14.0836L162.539 14.0235C166.295 14.0012 174.131 13.6872 177.493 14.3255C173.995 18.7226 168.611 23.7016 164.547 27.8385C160.204 32.2604 156.337 36.6786 152.073 41.1403C147.132 46.3096 142.125 50.8379 137.608 56.4322L104.949 90.4524C102.516 92.9598 100.249 96.1071 97.6657 98.4159C97.1492 98.8774 93.7177 99.0339 92.8671 99.0391C84.6688 99.0897 76.4515 99.0952 68.2508 99.1053L29.5152 99.1087C26.9628 99.0944 14.9541 99.3799 13.316 98.8885C13.0404 98.4943 13.0584 98.524 13.0581 98.0408L13.0272 14.18C16.4395 13.806 24.4246 14.0435 28.1099 14.0635Z"/><path fill="#22527B" d="M38.8515 56.9428C61.6751 57.0627 84.4994 57.0237 107.323 56.826L126.717 56.7729C129.48 56.7621 135.115 56.8878 137.608 56.4322L104.949 90.4524C102.516 92.9598 100.249 96.1071 97.6657 98.4159C97.1492 98.8774 93.7177 99.0339 92.8671 99.0391C84.6688 99.0897 76.4515 99.0952 68.2508 99.1053L29.5152 99.1087C26.9628 99.0944 14.9541 99.3799 13.316 98.8885C13.0404 98.4943 13.0584 98.524 13.0581 98.0408C13.4381 97.7469 13.5998 97.6655 13.6119 97.0096C13.6733 93.6725 13.6482 90.2396 13.6449 86.91L13.6011 66.6988C13.591 64.907 13.4015 59.066 13.8471 57.6676C14.978 56.984 16.8079 56.8546 18.114 56.8946C24.6637 56.921 32.3883 57.1486 38.8515 56.9428Z"/><defs><linearGradient id="gradient_6" gradientUnits="userSpaceOnUse" x1="13.162774" y1="35.542648" x2="28.092817" y2="35.296535"><stop offset="0" stop-color="#1B567C"/><stop offset="1" stop-color="#336C8C"/></linearGradient></defs><path fill="url(#gradient_6)" d="M13.0272 14.18C16.4395 13.806 24.4246 14.0435 28.1099 14.0635C26.7852 15.2954 25.1911 14.9125 23.9015 15.8674C24.0335 16.1681 24.1544 16.4592 24.2312 16.7789C23.3494 17.212 22.9684 17.2044 22.0046 17.2973C19.4322 18.8871 20.0474 20.9886 18.6247 23.5821C18.2675 22.6692 18.7152 18.4387 18.4822 17.6733C18.2036 18.6105 18.2753 23.0509 18.2468 24.3918C18.0394 32.6706 17.9656 40.9521 18.0255 49.2332C18.0404 51.2498 17.9492 55.0213 18.114 56.8946C16.8079 56.8546 14.978 56.984 13.8471 57.6676C13.4015 59.066 13.591 64.907 13.6011 66.6988L13.6449 86.91C13.6482 90.2396 13.6733 93.6725 13.6119 97.0096C13.5998 97.6655 13.4381 97.7469 13.0581 98.0408L13.0272 14.18Z"/><path fill="#296687" d="M18.0255 49.2332C18.1319 50.1369 18.1762 50.9972 18.501 51.8406C19.4265 52.0827 19.6874 52.1689 20.3794 52.8326C20.4026 53.2162 20.4151 53.6004 20.417 53.9847C26.0751 57.6883 31.6376 56.0631 38.8515 56.9428C32.3883 57.1486 24.6637 56.921 18.114 56.8946C17.9492 55.0213 18.0404 51.2498 18.0255 49.2332Z"/><defs><linearGradient id="gradient_7" gradientUnits="userSpaceOnUse" x1="135.64906" y1="370.23825" x2="181.98315" y2="323.25562"><stop offset="0" stop-color="#182B61"/><stop offset="1" stop-color="#3EA2AB"/></linearGradient></defs><path fill="url(#gradient_7)" d="M164.837 307.195C169.397 301.384 174.985 293.703 180.485 288.788C180.641 296.256 180.676 303.726 180.588 311.195C180.561 315.273 180.646 320.067 180.455 324.1C180.683 332.411 180.317 341.076 180.487 349.416C180.555 352.745 180.194 356.272 180.459 359.577C177.694 359.126 173.691 359.231 170.792 359.221L156.247 359.195L136.843 359.203C132.079 359.209 127.282 359.08 122.552 359.591C133.613 345.632 145.093 332 156.128 318.014C158.794 314.634 161.904 310.296 164.837 307.195Z"/><defs><linearGradient id="gradient_8" gradientUnits="userSpaceOnUse" x1="167.89763" y1="318.40988" x2="189.04137" y2="301.6698"><stop offset="0" stop-color="#399DA6"/><stop offset="1" stop-color="#52C5BC"/></linearGradient></defs><path fill="url(#gradient_8)" d="M164.837 307.195C169.397 301.384 174.985 293.703 180.485 288.788C180.641 296.256 180.676 303.726 180.588 311.195C180.561 315.273 180.646 320.067 180.455 324.1C179.841 325.852 180.566 327.207 179.858 328.38C175.736 325.832 166.681 318.143 164.709 313.497C163.607 310.899 164.753 309.281 165.724 307.184C165.191 307.426 165.476 307.388 164.837 307.195Z"/></svg>